:FULLY-SPECIFIED
:FORCE-ALL-JOINTS-BE-3DOF
:DEGREES
306
root 9.09038 15.4222 -23.7985 13.1148 59.7969 16.9837
lfemur -16.2708 18.7686 -18.1631
ltibia 52.5809 -0 0
lfoot -17.345 -26.3398 -0.0599569
ltoes 57.9635 -0 0
rfemur -53.0633 -18.8902 35.4152
rtibia 56.9475 -0 0
rfoot 13.8345 12.588 0.00400153
rtoes 7.3189 -0 0
lowerback 9.33266 -3.29133 -8.48747
upperback 4.99788 -4.88996 -4.04606
thorax 0.376126 -2.47725 0.940773
lowerneck -5.32731 -10.5758 -2.7426
upperneck -2.02615 -14.0227 10.5019
head 1.30666 -6.89042 3.36278
lclavicle -0 0 0
lhumerus -42.2535 -42.007 99.3345
lradius 59.3972 -0 0
lwrist 21.0918 0 0
lhand 14.5036 11.8423 0.002265
lfingers 0 -0 0
lthumb 39.3842 37.2504 0.0018757
rclavicle -0 0 0
rhumerus -41.9471 66.4818 -77.4725
rradius 79.6949 -0 0
rwrist 4.856 0 0
rhand 1.92141 -5.87376 0.248811
rfingers 0 -0 0
rthumb 27.385 -33.449 0.384876
307
root 9.04661 15.4426 -23.7798 12.6081 58.3166 16.0628
lfemur -16.4359 19.1487 -18.0832
ltibia 52.1732 -0 0
lfoot -17.9668 -25.4187 -0.0499609
ltoes 57.8477 -0 0
rfemur -54.6636 -20.0401 36.2326
rtibia 57.7096 -0 0
rfoot 13.8492 15.1796 0.00333347
rtoes 0.1417 -0 0
lowerback 9.52443 -3.17687 -8.41148
upperback 5.01419 -4.75514 -4.05411
thorax 0.269239 -2.40605 0.894908
lowerneck -5.44022 -10.4558 -2.48547
upperneck -2.48938 -13.8359 10.628
head 1.15205 -6.80696 3.3782
lclavicle -0 0 0
lhumerus -42.5939 -42.6804 99.6265
lradius 59.1674 -0 0
lwrist 20.7801 0 0
lhand 14.4062 11.6203 0.00188749
lfingers 0 -0 0
lthumb 39.2924 37.0553 0.00156308
rclavicle -0 0 0
rhumerus -33.8663 67.1755 -69.6627
rradius 79.7066 -0 0
rwrist 3.21204 0 0
rhand 5.09424 -5.1237 0.20723
rfingers 0 -0 0
rthumb 30.4218 -32.2368 0.320556
308
root 9.00283 15.4629 -23.761 12.1651 56.8324 15.2026
lfemur -16.6007 19.529 -18.0043
ltibia 51.7655 -0 0
lfoot -18.5882 -24.4978 -0.0299728
ltoes 57.7318 -0 0
rfemur -56.2933 -21.1679 37.0902
rtibia 58.4716 -0 0
rfoot 13.864 17.7712 0.00199872
rtoes -7.0355 0 0
lowerback 9.71633 -3.06266 -8.33511
upperback 5.03048 -4.62032 -4.06213
thorax 0.162301 -2.33494 0.848912
lowerneck -5.55254 -10.3352 -2.22867
upperneck -2.95181 -13.6481 10.7525
head 0.997496 -6.72345 3.3934
lclavicle -0 0 0
lhumerus -42.9427 -43.3524 99.9272
lradius 58.9375 -0 0
lwrist 20.4684 0 0
lhand 14.3088 11.3982 0.00113249
lfingers 0 -0 0
lthumb 39.2006 36.8601 0.000937842
rclavicle -0 0 0
rhumerus -25.4576 67.4207 -61.5246
rradius 79.7183 -0 0
rwrist 1.56809 0 0
rhand 8.26625 -4.37708 0.124204
rfingers 0 -0 0
rthumb 33.4566 -31.0296 0.192124
309
root 8.95906 15.4833 -23.7423 11.7781 55.3449 14.3951
lfemur -16.7654 19.9095 -17.9263
ltibia 51.3578 0 0
lfoot -19.2093 -23.5771 0
ltoes 57.616 0 0
rfemur -57.9538 -22.2722 37.9888
rtibia 59.2337 0 0
rfoot 13.8786 20.3628 0
rtoes -14.2127 0 0
lowerback 9.90836 -2.94871 -8.25837
upperback 5.04675 -4.48549 -4.0701
thorax 0.0553108 -2.26391 0.802785
lowerneck -5.66427 -10.2142 -1.97222
upperneck -3.41346 -13.4593 10.8753
head 0.842986 -6.6399 3.40836
lclavicle 5.08889e-14 0 0
lhumerus -43.3004 -44.0231 100.237
lradius 58.7077 0 0
lwrist 20.1567 0 0
lhand 14.2114 11.1762 0
lfingers 7.12502 0 0
lthumb 39.1088 36.665 0
rclavicle 5.08889e-14 0 0
rhumerus -17.0391 67.2029 -53.3766
rradius 79.73 0 0
rwrist -0.0758576 0 0
rhand 11.4369 -3.63621 0
rfingers 7.12502 0 0
rthumb 36.4879 -749.831 0
310
root 8.92794 15.5057 -23.6993 11.6108 54.3184 13.9067
lfemur -16.6814 20.0969 -17.7827
ltibia 50.7654 -0 0
lfoot -19.5516 -22.7298 -0.0151978
ltoes 57.5068 -0 0
rfemur -58.4277 -21.9642 36.7174
rtibia 59.486 -0 0
rfoot 12.6703 18.8214 0.0978665
rtoes -14.4605 0 0
lowerback 9.90359 -2.74348 -7.96795
upperback 5.00582 -4.19721 -4.07975
thorax -0.0218841 -2.11397 0.609298
lowerneck -5.54382 -10.3338 -1.57308
upperneck -3.77348 -13.6045 10.8043
head 0.679346 -6.7343 3.33476
lclavicle -0 0 0
lhumerus -43.9035 -45.115 101.041
lradius 58.74 -0 0
lwrist 19.9286 0 0
lhand 14.3152 10.9979 -0.000969341
lfingers 0 -0 0
lthumb 39.2066 36.458 -0.00106009
rclavicle -0 0 0
rhumerus -14.5939 61.2389 -52.6791
rradius 78.5207 -0 0
rwrist -2.84134 0 0
rhand 9.45795 -5.55919 0.200661
rfingers 0 -0 0
rthumb 34.6024 -32.0997 0.225796
311
root 8.89682 15.5281 -23.6562 11.4621 53.2911 13.4352
lfemur -16.5967 20.2842 -17.6387
ltibia 50.173 -0 0
lfoot -19.8941 -21.8825 -0.0253318
ltoes 57.3975 -0 0
rfemur -58.9079 -21.666 35.446
rtibia 59.7382 -0 0
rfoot 11.4598 17.2782 0.163175
rtoes -14.7084 0 0
lowerback 9.89987 -2.53823 -7.6776
upperback 4.96486 -3.90894 -4.0896
thorax -0.0995781 -1.96428 0.415627
lowerneck -5.42418 -10.4542 -1.17404
upperneck -4.13355 -13.7501 10.7342
head 0.515797 -6.8289 3.26142
lclavicle -0 0 0
lhumerus -44.5406 -46.2007 101.877
lradius 58.7723 -0 0
lwrist 19.7005 0 0
lhand 14.4191 10.8196 -0.00161558
lfingers 0 -0 0
lthumb 39.3044 36.251 -0.00176683
rclavicle -0 0 0
rhumerus -12.656 55.2678 -52.5362
rradius 77.3113 -0 0
rwrist -5.60681 0 0
rhand 7.47336 -7.48798 0.334696
rfingers 0 -0 0
rthumb 32.7093 -34.3747 0.376662
312
root 8.8657 15.5505 -23.6132 11.3307 52.2631 12.979
lfemur -16.5115 20.4712 -17.4942
ltibia 49.5806 -0 0
lfoot -20.2367 -21.0351 -0.0303995
ltoes 57.2883 -0 0
rfemur -59.3941 -21.3778 34.1746
rtibia 59.9905 -0 0
rfoot 10.248 15.734 0.195848
rtoes -14.9562 0 0
lowerback 9.89719 -2.33297 -7.38731
upperback 4.92386 -3.62067 -4.09965
thorax -0.177771 -1.81486 0.22177
lowerneck -5.30535 -10.5754 -0.775103
upperneck -4.49365 -13.8962 10.6649
head 0.352337 -6.92371 3.18834
lclavicle -0 0 0
lhumerus -45.2139 -47.2796 102.747
lradius 58.8046 -0 0
lwrist 19.4724 0 0
lhand 14.5229 10.6413 -0.00193869
lfingers 0 -0 0
lthumb 39.4022 36.044 -0.00212021
rclavicle -0 0 0
rhumerus -10.9857 49.2973 -52.7206
rradius 76.102 -0 0
rwrist -8.37229 0 0
rhand 5.48536 -9.42027 0.401792
rfingers 0 -0 0
rthumb 30.8118 -36.6535 0.452197
313
root 8.83457 15.5728 -23.5701 11.2154 51.2345 12.5368
lfemur -16.4256 20.658 -17.3493
ltibia 48.9882 -0 0
lfoot -20.5794 -20.1876 -0.0303995
ltoes 57.1791 -0 0
rfemur -59.886 -21.0997 32.903
rtibia 60.2428 -0 0
rfoot 9.03569 14.1894 0.195848
rtoes -15.204 0 0
lowerback 9.89554 -2.12769 -7.09706
upperback 4.88283 -3.33242 -4.10991
thorax -0.256463 -1.66571 0.0277248
lowerneck -5.18733 -10.6975 -0.376264
upperneck -4.8538 -14.0426 10.5966
head 0.188966 -7.01873 3.11552
lclavicle -0 0 0
lhumerus -45.9258 -48.3513 103.655
lradius 58.8369 -0 0
lwrist 19.2442 0 0
lhand 14.6267 10.463 -0.00193869
lfingers 0 -0 0
lthumb 39.5001 35.8371 -0.00212021
rclavicle -0 0 0
rhumerus -9.46197 43.3322 -53.1246
rradius 74.8926 -0 0
rwrist -11.1378 0 0
rhand 3.49622 -11.3537 0.401792
rfingers 0 -0 0
rthumb 28.9127 -38.9335 0.452197
314
root 8.80345 15.5952 -23.5271 11.115 50.2054 12.1075
lfemur -16.3392 20.8447 -17.2038
ltibia 48.3958 -0 0
lfoot -20.922 -19.3402 -0.0253318
ltoes 57.0699 -0 0
rfemur -60.3836 -20.8318 31.6312
rtibia 60.4951 -0 0
rfoot 7.82386 12.6452 0.163175
rtoes -15.4518 0 0
lowerback 9.89494 -1.92241 -6.80686
upperback 4.84175 -3.04417 -4.12037
thorax -0.335655 -1.51682 -0.166511
lowerneck -5.07013 -10.8203 0.0224814
upperneck -5.214 -14.1895 10.5292
head 0.0256835 -7.11395 3.04295
lclavicle -0 0 0
lhumerus -46.6791 -49.415 104.603
lradius 58.8692 -0 0
lwrist 19.0161 0 0
lhand 14.7305 10.2847 -0.00161558
lfingers 0 -0 0
lthumb 39.5979 35.6301 -0.00176683
rclavicle -0 0 0
rhumerus -8.01456 37.3763 -53.6935
rradius 73.6833 -0 0
rwrist -13.9032 0 0
rhand 1.50822 -13.286 0.334696
rfingers 0 -0 0
rthumb 27.0152 -41.2123 0.376662
